<svg width="30" height="30" viewBox="0 0 30 30" fill="none" xmlns="http://www.w3.org/2000/svg">
<path fill-rule="evenodd" clip-rule="evenodd" d="M15 12.8774C13.8277 12.8774 12.8774 13.8277 12.8774 15C12.8774 16.1723 13.8277 17.1226 15 17.1226C16.1723 17.1226 17.1226 16.1723 17.1226 15C17.1226 13.8277 16.1723 12.8774 15 12.8774ZM10.8962 15C10.8962 12.7335 12.7335 10.8962 15 10.8962C17.2665 10.8962 19.1038 12.7335 19.1038 15C19.1038 17.2665 17.2665 19.1038 15 19.1038C12.7335 19.1038 10.8962 17.2665 10.8962 15Z" fill="#ffffff"/>
<path fill-rule="evenodd" clip-rule="evenodd" d="M15 7.5C10.8579 7.5 7.5 10.8579 7.5 15C7.5 19.1421 10.8579 22.5 15 22.5C19.1421 22.5 22.5 19.1421 22.5 15C22.5 10.8579 19.1421 7.5 15 7.5ZM5.51887 15C5.51887 9.76372 9.76372 5.51887 15 5.51887C20.2363 5.51887 24.4811 9.76372 24.4811 15C24.4811 20.2363 20.2363 24.4811 15 24.4811C9.76372 24.4811 5.51887 20.2363 5.51887 15Z" fill="#ffffff"/>
<path fill-rule="evenodd" clip-rule="evenodd" d="M15 1.98113C7.80988 1.98113 1.98113 7.80988 1.98113 15C1.98113 22.1901 7.80988 28.0189 15 28.0189C22.1901 28.0189 28.0189 22.1901 28.0189 15C28.0189 7.80988 22.1901 1.98113 15 1.98113ZM0 15C0 6.71573 6.71573 0 15 0C23.2843 0 30 6.71573 30 15C30 23.2843 23.2843 30 15 30C6.71573 30 0 23.2843 0 15Z" fill="#ffffff"/>
</svg>
